<svg width="146" height="30" viewBox="0 0 146 30" fill="none" xmlns="http://www.w3.org/2000/svg">
  <path d="M110.5 12C110.5 10.8065 109.694 10 108.5 10C107.306 10 106.5 10.8065 106.5 12C106.5 13.1935 107.306 14 108.5 14C109.694 14 110.5 13.1935 110.5 12Z" fill="#FF5A36"/>
  <path d="M95.5 12C95.5 10.8065 94.6935 10 93.5 10C92.3065 10 91.5 10.8065 91.5 12C91.5 13.1935 92.3065 14 93.5 14C94.6935 14 95.5 13.1935 95.5 12Z" fill="#FF5A36"/>
  <path d="M39.5 12C39.5 10.8065 38.6935 10 37.5 10C36.3065 10 35.5 10.8065 35.5 12C35.5 13.1935 36.3065 14 37.5 14C38.6935 14 39.5 13.1935 39.5 12Z" fill="#FF5A36"/>
  <path d="M146 12C146 8 142 5 138 5H8C4 5 0 8 0 12V18C0 22 4 25 8 25H138C142 25 146 22 146 18V12Z" fill="transparent"/>
  <path d="M43.4354 17H41.0646L39.5645 14.1211H38.4351V17H36.5005V7.36523H40.4839C41.3711 7.36523 42.0996 7.60612 42.6694 8.08789C43.2392 8.56966 43.5241 9.21517 43.5241 10.0244C43.5241 10.6315 43.3525 11.1576 43.0095 11.6025C42.6694 12.0446 42.1979 12.3394 41.5949 12.4868L43.4354 17ZM38.4351 12.5371H40.4324C40.8369 12.5371 41.1549 12.4211 41.3863 12.1893C41.6177 11.9546 41.7334 11.6494 41.7334 11.2738C41.7334 10.8983 41.6177 10.5961 41.3863 10.3672C41.1549 10.1383 40.8369 10.0239 40.4324 10.0239H38.4351V12.5371Z" fill="white"/>
  <path d="M51.1985 15.3193V17H45.3721V7.36523H51.082V9.04199H47.3008V11.1807H50.6704V12.8428H47.3008V15.3193H51.1985Z" fill="white"/>
  <path d="M59.1377 17L57.6377 14.208H55.459V17H53.5244V7.36523H57.5078C58.3949 7.36523 59.1235 7.60612 59.6934 8.08789C60.2632 8.56966 60.5481 9.21517 60.5481 10.0244C60.5481 10.6729 60.3765 11.2151 60.0335 11.6514C59.6934 12.0877 59.2219 12.3853 58.619 12.5454L60.47 17H59.1377ZM55.459 12.5371H57.4563C57.8608 12.5371 58.1788 12.4211 58.4102 12.1893C58.6416 11.9546 58.7573 11.6494 58.7573 11.2738C58.7573 10.8983 58.6416 10.5961 58.4102 10.3672C58.1788 10.1383 57.8608 10.0239 57.4563 10.0239H55.459V12.5371Z" fill="white"/>
  <path d="M66.8531 17.1299C65.8848 17.1299 64.9919 16.8732 64.1745 16.3599C63.36 15.8437 62.7197 15.1323 62.2534 14.2256C61.7901 13.3161 61.5584 12.2971 61.5584 11.1689C61.5584 10.0409 61.7901 9.0234 62.2534 8.11719C62.7197 7.20768 63.36 6.49626 64.1745 5.98291C64.9919 5.46956 65.8848 5.21289 66.8531 5.21289C67.8244 5.21289 68.7203 5.46956 69.5408 5.98291C70.3613 6.49626 71 7.20768 71.4576 8.11719C71.9152 9.0234 72.1441 10.0409 72.1441 11.1689C72.1441 12.2971 71.9152 13.3161 71.4576 14.2256C71 15.1323 70.3613 15.8437 69.5408 16.3599C68.7203 16.8732 67.8244 17.1299 66.8531 17.1299ZM66.8531 15.4141C67.4679 15.4141 68.0113 15.2514 68.4833 14.9258C68.9554 14.5973 69.3175 14.1445 69.5697 13.5674C69.8219 12.9873 69.948 12.3333 69.948 11.6055C69.948 10.8804 69.8219 10.2318 69.5697 9.65967C69.3175 9.08268 68.9554 8.63444 68.4833 8.31494C68.0113 7.99219 67.4679 7.83081 66.8531 7.83081C66.2354 7.83081 65.6905 7.99219 65.2183 8.31494C64.7463 8.63444 64.3842 9.08268 64.132 9.65967C63.8828 10.2318 63.7583 10.8804 63.7583 11.6055C63.7583 12.3333 63.8828 12.9873 64.132 13.5674C64.3842 14.1445 64.7463 14.5973 65.2183 14.9258C65.6905 15.2514 66.2354 15.4141 66.8531 15.4141Z" fill="white"/>
  <path d="M86.8434 17H84.9089L80.0469 11.0381V17H78.1123V7.36523H80.0469L84.9089 13.3379V7.36523H86.8434V17Z" fill="white"/>
  <path d="M95.6724 15.3193V17H89.8459V7.36523H95.5559V9.04199H91.7747V11.1807H95.1443V12.8428H91.7747V15.3193H95.6724Z" fill="white"/>
  <path d="M108.676 7.36523V17H106.742V9.04199H103.909V17H101.975V7.36523H108.676Z" fill="white"/>
</svg>
